<svg
  xmlns="http://www.w3.org/2000/svg"
  viewBox="0 0 48 48"
  fill="none"
>
  <circle cx="24" cy="24" r="22" fill="#1A7F71" />
  <path
    d="M24 8.5C18.7 13.6 16 18.8 16 24s2.7 10.4 8 15.5c5.3-5.1 8-10.3 8-15.5S29.3 13.6 24 8.5Z"
    stroke="#FFFFFF"
    stroke-width="2.5"
  />
  <path
    d="M24 8.5v31"
    stroke="#FFFFFF"
    stroke-linecap="round"
    stroke-width="2.5"
  />
  <path
    d="M9.5 24h29"
    stroke="#FFFFFF"
    stroke-linecap="round"
    stroke-opacity=".58"
    stroke-width="2"
  />
  <path
    d="M12.5 16.5c3.3 1.8 7.1 2.7 11.5 2.7s8.2-.9 11.5-2.7M12.5 31.5c3.3-1.8 7.1-2.7 11.5-2.7s8.2.9 11.5 2.7"
    stroke="#FFFFFF"
    stroke-linecap="round"
    stroke-opacity=".58"
    stroke-width="2"
  />
  <path
    d="m24 5.5 3 5.3h-6l3-5.3Z"
    fill="#FFFFFF"
    stroke="#1A7F71"
    stroke-linejoin="round"
    stroke-width="1.5"
  />
</svg>
